<?xml version="1.0" standalone="no"?>
<!DOCTYPE svg PUBLIC "-//W3C//DTD SVG 20010904//EN"
 "http://www.w3.org/TR/2001/REC-SVG-20010904/DTD/svg10.dtd">
<svg version="1.0" xmlns="http://www.w3.org/2000/svg"
 width="512.000000pt" height="512.000000pt" viewBox="0 0 512.000000 512.000000"
 preserveAspectRatio="xMidYMid meet">

<g transform="translate(0.000000,512.000000) scale(0.100000,-0.100000)"
fill="#000000" stroke="none">
<path d="M490 3440 l0 -970 -177 0 c-149 0 -184 -3 -213 -18 -95 -47 -123
-261 -75 -588 20 -135 78 -422 106 -527 l21 -78 106 3 106 3 12 71 c43 257
290 464 554 464 142 0 295 -66 399 -170 93 -94 142 -193 166 -332 l6 -38 344
0 345 0 0 38 c0 60 36 187 72 255 43 81 164 202 245 245 300 158 672 42 823
-258 49 -96 64 -165 64 -282 l0 -108 104 0 c79 0 103 3 100 13 -3 6 -83 257
-178 557 -95 300 -174 546 -175 548 -1 1 -33 -12 -71 -30 -78 -37 -181 -49
-223 -26 -49 26 -60 56 -86 233 -141 960 -417 1652 -745 1870 -39 26 -96 56
-127 68 -57 22 -66 22 -780 25 l-723 3 0 -971z m1331 650 c178 -34 308 -202
419 -540 58 -175 217 -907 260 -1195 6 -38 13 -82 16 -98 l6 -27 -358 2 -358
3 -156 272 -155 273 -342 0 -343 0 0 660 0 660 479 0 c282 0 500 -4 532 -10z"/>
<path d="M2769 4385 c-33 -18 -62 -78 -54 -108 4 -12 227 -688 497 -1501 523
-1580 502 -1524 573 -1542 21 -5 174 42 644 196 339 112 626 210 639 218 27
17 52 62 52 92 0 55 -57 110 -114 110 -14 0 -271 -81 -572 -180 -301 -99 -551
-177 -554 -173 -4 4 -218 640 -475 1413 -257 773 -474 1417 -482 1432 -26 52
-100 72 -154 43z"/>
<path d="M2674 1786 c-256 -62 -433 -322 -396 -580 42 -289 318 -495 600 -446
189 32 355 174 417 357 60 175 7 388 -130 526 -131 130 -318 185 -491 143z
m248 -239 c190 -88 234 -333 86 -484 -116 -119 -317 -117 -429 4 -59 64 -82
123 -82 208 0 223 223 366 425 272z"/>
<path d="M770 1682 c-208 -69 -350 -262 -350 -476 0 -271 225 -496 495 -496
222 0 419 151 480 367 23 84 17 225 -14 305 -48 124 -165 241 -289 289 -80 31
-244 37 -322 11z m277 -220 c53 -27 116 -98 138 -155 26 -68 17 -179 -18 -240
-79 -134 -235 -184 -372 -118 -134 63 -197 213 -149 354 19 57 83 131 137 158
79 41 185 41 264 1z"/>
</g>
</svg>
